<mxfile host="app.diagrams.net" modified="2024-07-16T22:37:54.675Z" agent="Mozilla/5.0 (Windows NT 10.0; Win64; x64) AppleWebKit/537.36 (KHTML, like Gecko) Chrome/126.0.0.0 Safari/537.36 Edg/126.0.0.0" etag="8kZuxW3JJTma8OGoiO6V" version="24.6.5" type="google">
  <diagram name="Página-1" id="YEM-F9tB0b0NcEA9Ldf6">
    <mxGraphModel grid="1" page="1" gridSize="10" guides="1" tooltips="1" connect="1" arrows="1" fold="1" pageScale="1" pageWidth="827" pageHeight="1169" math="0" shadow="0">
      <root>
        <mxCell id="0" />
        <mxCell id="1" parent="0" />
        <mxCell id="eT15S88B968ChohsC_bF-1" value="Recepció" style="swimlane;whiteSpace=wrap;html=1;" vertex="1" parent="1">
          <mxGeometry x="210" y="50" width="180" height="2460" as="geometry" />
        </mxCell>
        <mxCell id="eT15S88B968ChohsC_bF-7" value="RECIBE CLIENTE" style="rounded=1;whiteSpace=wrap;html=1;" vertex="1" parent="eT15S88B968ChohsC_bF-1">
          <mxGeometry x="20" y="100" width="120" height="60" as="geometry" />
        </mxCell>
        <mxCell id="eT15S88B968ChohsC_bF-10" value="&lt;font style=&quot;font-size: 8px;&quot;&gt;VERIFICA SI EXISTEN LUGARES&lt;/font&gt;" style="rhombus;whiteSpace=wrap;html=1;" vertex="1" parent="eT15S88B968ChohsC_bF-1">
          <mxGeometry x="25" y="200" width="110" height="120" as="geometry" />
        </mxCell>
        <mxCell id="eT15S88B968ChohsC_bF-13" value="" style="endArrow=classic;html=1;rounded=0;exitX=0.5;exitY=1;exitDx=0;exitDy=0;entryX=0.5;entryY=0;entryDx=0;entryDy=0;" edge="1" parent="eT15S88B968ChohsC_bF-1" source="eT15S88B968ChohsC_bF-7" target="eT15S88B968ChohsC_bF-10">
          <mxGeometry width="50" height="50" relative="1" as="geometry">
            <mxPoint x="180" y="160" as="sourcePoint" />
            <mxPoint x="230" y="110" as="targetPoint" />
          </mxGeometry>
        </mxCell>
        <mxCell id="eT15S88B968ChohsC_bF-14" value="ASIGNA LUGAR" style="rounded=0;whiteSpace=wrap;html=1;" vertex="1" parent="eT15S88B968ChohsC_bF-1">
          <mxGeometry x="20" y="360" width="120" height="60" as="geometry" />
        </mxCell>
        <mxCell id="eT15S88B968ChohsC_bF-15" value="" style="endArrow=classic;html=1;rounded=0;exitX=0.5;exitY=1;exitDx=0;exitDy=0;entryX=0.5;entryY=0;entryDx=0;entryDy=0;" edge="1" parent="eT15S88B968ChohsC_bF-1" source="eT15S88B968ChohsC_bF-10" target="eT15S88B968ChohsC_bF-14">
          <mxGeometry width="50" height="50" relative="1" as="geometry">
            <mxPoint x="180" y="260" as="sourcePoint" />
            <mxPoint x="230" y="210" as="targetPoint" />
          </mxGeometry>
        </mxCell>
        <mxCell id="eT15S88B968ChohsC_bF-16" value="SI" style="edgeLabel;html=1;align=center;verticalAlign=middle;resizable=0;points=[];" connectable="0" vertex="1" parent="eT15S88B968ChohsC_bF-15">
          <mxGeometry x="0.029" y="-2" relative="1" as="geometry">
            <mxPoint as="offset" />
          </mxGeometry>
        </mxCell>
        <mxCell id="eT15S88B968ChohsC_bF-17" value="ESPERA A ESPACIO LIBRE" style="rhombus;whiteSpace=wrap;html=1;" vertex="1" parent="eT15S88B968ChohsC_bF-1">
          <mxGeometry x="20" y="460" width="120" height="120" as="geometry" />
        </mxCell>
        <mxCell id="eT15S88B968ChohsC_bF-25" value="" style="endArrow=classic;html=1;rounded=0;exitX=1;exitY=0.5;exitDx=0;exitDy=0;entryX=1;entryY=0.5;entryDx=0;entryDy=0;" edge="1" parent="eT15S88B968ChohsC_bF-1" source="eT15S88B968ChohsC_bF-10" target="eT15S88B968ChohsC_bF-17">
          <mxGeometry width="50" height="50" relative="1" as="geometry">
            <mxPoint x="180" y="410" as="sourcePoint" />
            <mxPoint x="230" y="360" as="targetPoint" />
            <Array as="points">
              <mxPoint x="160" y="260" />
              <mxPoint x="160" y="520" />
            </Array>
          </mxGeometry>
        </mxCell>
        <mxCell id="eT15S88B968ChohsC_bF-26" value="NO" style="edgeLabel;html=1;align=center;verticalAlign=middle;resizable=0;points=[];" connectable="0" vertex="1" parent="eT15S88B968ChohsC_bF-25">
          <mxGeometry x="0.1738" y="2" relative="1" as="geometry">
            <mxPoint as="offset" />
          </mxGeometry>
        </mxCell>
        <mxCell id="eT15S88B968ChohsC_bF-2" value="Atención" style="swimlane;whiteSpace=wrap;html=1;" vertex="1" parent="1">
          <mxGeometry x="400" y="50" width="180" height="2460" as="geometry" />
        </mxCell>
        <mxCell id="eT15S88B968ChohsC_bF-27" value="ACERCA Y ENTREGA MENÚ" style="rounded=0;whiteSpace=wrap;html=1;" vertex="1" parent="eT15S88B968ChohsC_bF-2">
          <mxGeometry x="30" y="360" width="120" height="60" as="geometry" />
        </mxCell>
        <mxCell id="eT15S88B968ChohsC_bF-32" value="INDICA VOLVER EN 5 MINUTOS" style="rounded=0;whiteSpace=wrap;html=1;" vertex="1" parent="eT15S88B968ChohsC_bF-2">
          <mxGeometry x="30" y="660" width="120" height="60" as="geometry" />
        </mxCell>
        <mxCell id="eT15S88B968ChohsC_bF-33" value="" style="endArrow=classic;html=1;rounded=0;exitX=0.5;exitY=1;exitDx=0;exitDy=0;entryX=0.5;entryY=0;entryDx=0;entryDy=0;" edge="1" parent="eT15S88B968ChohsC_bF-2" source="eT15S88B968ChohsC_bF-27" target="eT15S88B968ChohsC_bF-32">
          <mxGeometry width="50" height="50" relative="1" as="geometry">
            <mxPoint x="-10" y="530" as="sourcePoint" />
            <mxPoint x="40" y="480" as="targetPoint" />
          </mxGeometry>
        </mxCell>
        <mxCell id="eT15S88B968ChohsC_bF-36" value="&amp;gt;=5 MINUTOSORDEN LINSTA" style="rhombus;whiteSpace=wrap;html=1;" vertex="1" parent="eT15S88B968ChohsC_bF-2">
          <mxGeometry x="30" y="770" width="120" height="130" as="geometry" />
        </mxCell>
        <mxCell id="eT15S88B968ChohsC_bF-37" value="" style="endArrow=classic;html=1;rounded=0;exitX=0.5;exitY=1;exitDx=0;exitDy=0;entryX=0.5;entryY=0;entryDx=0;entryDy=0;" edge="1" parent="eT15S88B968ChohsC_bF-2" source="eT15S88B968ChohsC_bF-32" target="eT15S88B968ChohsC_bF-36">
          <mxGeometry width="50" height="50" relative="1" as="geometry">
            <mxPoint x="-10" y="740" as="sourcePoint" />
            <mxPoint x="40" y="690" as="targetPoint" />
          </mxGeometry>
        </mxCell>
        <mxCell id="eT15S88B968ChohsC_bF-39" value="" style="endArrow=classic;html=1;rounded=0;exitX=1;exitY=0.5;exitDx=0;exitDy=0;entryX=1;entryY=0.5;entryDx=0;entryDy=0;" edge="1" parent="eT15S88B968ChohsC_bF-2" source="eT15S88B968ChohsC_bF-36" target="eT15S88B968ChohsC_bF-32">
          <mxGeometry width="50" height="50" relative="1" as="geometry">
            <mxPoint x="-10" y="740" as="sourcePoint" />
            <mxPoint x="40" y="690" as="targetPoint" />
            <Array as="points">
              <mxPoint x="170" y="835" />
              <mxPoint x="170" y="690" />
            </Array>
          </mxGeometry>
        </mxCell>
        <mxCell id="eT15S88B968ChohsC_bF-40" value="NO" style="edgeLabel;html=1;align=center;verticalAlign=middle;resizable=0;points=[];" connectable="0" vertex="1" parent="eT15S88B968ChohsC_bF-39">
          <mxGeometry x="-0.0703" y="-2" relative="1" as="geometry">
            <mxPoint as="offset" />
          </mxGeometry>
        </mxCell>
        <mxCell id="eT15S88B968ChohsC_bF-41" value="LEVANTA ORDEN" style="shape=process;whiteSpace=wrap;html=1;backgroundOutline=1;" vertex="1" parent="eT15S88B968ChohsC_bF-2">
          <mxGeometry x="30" y="970" width="120" height="60" as="geometry" />
        </mxCell>
        <mxCell id="eT15S88B968ChohsC_bF-42" value="" style="endArrow=classic;html=1;rounded=0;exitX=0.5;exitY=1;exitDx=0;exitDy=0;entryX=0.5;entryY=0;entryDx=0;entryDy=0;" edge="1" parent="eT15S88B968ChohsC_bF-2" source="eT15S88B968ChohsC_bF-36" target="eT15S88B968ChohsC_bF-41">
          <mxGeometry width="50" height="50" relative="1" as="geometry">
            <mxPoint x="-10" y="960" as="sourcePoint" />
            <mxPoint x="40" y="910" as="targetPoint" />
          </mxGeometry>
        </mxCell>
        <mxCell id="eT15S88B968ChohsC_bF-43" value="SI" style="edgeLabel;html=1;align=center;verticalAlign=middle;resizable=0;points=[];" connectable="0" vertex="1" parent="eT15S88B968ChohsC_bF-42">
          <mxGeometry x="0.0286" y="-1" relative="1" as="geometry">
            <mxPoint as="offset" />
          </mxGeometry>
        </mxCell>
        <mxCell id="eT15S88B968ChohsC_bF-52" value="LLEVA A CLIENTE" style="shape=trapezoid;perimeter=trapezoidPerimeter;whiteSpace=wrap;html=1;fixedSize=1;" vertex="1" parent="eT15S88B968ChohsC_bF-2">
          <mxGeometry x="20" y="1250" width="140" height="60" as="geometry" />
        </mxCell>
        <mxCell id="eT15S88B968ChohsC_bF-56" value="&amp;gt;=20 MINUTOS DESEA ALGO MAS" style="rhombus;whiteSpace=wrap;html=1;" vertex="1" parent="eT15S88B968ChohsC_bF-2">
          <mxGeometry x="35" y="1380" width="110" height="120" as="geometry" />
        </mxCell>
        <mxCell id="eT15S88B968ChohsC_bF-58" value="" style="endArrow=classic;html=1;rounded=0;exitX=0;exitY=0.5;exitDx=0;exitDy=0;entryX=0;entryY=0.5;entryDx=0;entryDy=0;" edge="1" parent="eT15S88B968ChohsC_bF-2" source="eT15S88B968ChohsC_bF-56" target="eT15S88B968ChohsC_bF-41">
          <mxGeometry width="50" height="50" relative="1" as="geometry">
            <mxPoint x="-100" y="1270" as="sourcePoint" />
            <mxPoint x="-50" y="1220" as="targetPoint" />
            <Array as="points">
              <mxPoint x="-40" y="1440" />
              <mxPoint x="-40" y="1000" />
            </Array>
          </mxGeometry>
        </mxCell>
        <mxCell id="eT15S88B968ChohsC_bF-59" value="SI" style="edgeLabel;html=1;align=center;verticalAlign=middle;resizable=0;points=[];" connectable="0" vertex="1" parent="eT15S88B968ChohsC_bF-58">
          <mxGeometry x="0.0017" y="2" relative="1" as="geometry">
            <mxPoint as="offset" />
          </mxGeometry>
        </mxCell>
        <mxCell id="eT15S88B968ChohsC_bF-60" value="SE RETIRA Y NOTIFICA A CAJA" style="rounded=0;whiteSpace=wrap;html=1;" vertex="1" parent="eT15S88B968ChohsC_bF-2">
          <mxGeometry x="30" y="1570" width="120" height="60" as="geometry" />
        </mxCell>
        <mxCell id="eT15S88B968ChohsC_bF-63" value="" style="endArrow=classic;html=1;rounded=0;exitX=0.5;exitY=1;exitDx=0;exitDy=0;entryX=0.5;entryY=0;entryDx=0;entryDy=0;" edge="1" parent="eT15S88B968ChohsC_bF-2" source="eT15S88B968ChohsC_bF-56" target="eT15S88B968ChohsC_bF-60">
          <mxGeometry width="50" height="50" relative="1" as="geometry">
            <mxPoint x="70" y="1530" as="sourcePoint" />
            <mxPoint x="120" y="1480" as="targetPoint" />
          </mxGeometry>
        </mxCell>
        <mxCell id="eT15S88B968ChohsC_bF-65" value="NO" style="edgeLabel;html=1;align=center;verticalAlign=middle;resizable=0;points=[];" connectable="0" vertex="1" parent="eT15S88B968ChohsC_bF-63">
          <mxGeometry x="0.2667" relative="1" as="geometry">
            <mxPoint as="offset" />
          </mxGeometry>
        </mxCell>
        <mxCell id="eT15S88B968ChohsC_bF-95" value="LIMPIA LUGAR" style="shape=process;whiteSpace=wrap;html=1;backgroundOutline=1;" vertex="1" parent="eT15S88B968ChohsC_bF-2">
          <mxGeometry x="30" y="2228" width="120" height="60" as="geometry" />
        </mxCell>
        <mxCell id="eT15S88B968ChohsC_bF-3" value="Cliente" style="swimlane;whiteSpace=wrap;html=1;" vertex="1" parent="1">
          <mxGeometry x="-10" y="50" width="210" height="2460" as="geometry" />
        </mxCell>
        <mxCell id="eT15S88B968ChohsC_bF-5" value="INICIO" style="ellipse;whiteSpace=wrap;html=1;" vertex="1" parent="eT15S88B968ChohsC_bF-3">
          <mxGeometry x="40" y="30" width="120" height="40" as="geometry" />
        </mxCell>
        <mxCell id="eT15S88B968ChohsC_bF-6" value="LLEGA A CAFETERIA" style="rounded=0;whiteSpace=wrap;html=1;" vertex="1" parent="eT15S88B968ChohsC_bF-3">
          <mxGeometry x="40" y="100" width="120" height="60" as="geometry" />
        </mxCell>
        <mxCell id="eT15S88B968ChohsC_bF-9" value="" style="endArrow=classic;html=1;rounded=0;entryX=0.5;entryY=0;entryDx=0;entryDy=0;" edge="1" parent="eT15S88B968ChohsC_bF-3" source="eT15S88B968ChohsC_bF-5" target="eT15S88B968ChohsC_bF-6">
          <mxGeometry width="50" height="50" relative="1" as="geometry">
            <mxPoint x="370" y="160" as="sourcePoint" />
            <mxPoint x="420" y="110" as="targetPoint" />
          </mxGeometry>
        </mxCell>
        <mxCell id="eT15S88B968ChohsC_bF-21" value="ESPERA" style="rounded=0;whiteSpace=wrap;html=1;" vertex="1" parent="eT15S88B968ChohsC_bF-3">
          <mxGeometry x="30" y="350" width="120" height="60" as="geometry" />
        </mxCell>
        <mxCell id="eT15S88B968ChohsC_bF-29" value="FIN" style="ellipse;whiteSpace=wrap;html=1;" vertex="1" parent="eT15S88B968ChohsC_bF-3">
          <mxGeometry x="30" y="580" width="120" height="40" as="geometry" />
        </mxCell>
        <mxCell id="eT15S88B968ChohsC_bF-34" value="REVISA MENÚ" style="shape=process;whiteSpace=wrap;html=1;backgroundOutline=1;" vertex="1" parent="eT15S88B968ChohsC_bF-3">
          <mxGeometry x="40" y="660" width="120" height="60" as="geometry" />
        </mxCell>
        <mxCell id="eT15S88B968ChohsC_bF-54" value="RECIBE Y DEGUSTA" style="rounded=1;whiteSpace=wrap;html=1;" vertex="1" parent="eT15S88B968ChohsC_bF-3">
          <mxGeometry x="40" y="1250" width="120" height="60" as="geometry" />
        </mxCell>
        <mxCell id="eT15S88B968ChohsC_bF-70" value="VERIFICA CUENTA" style="rounded=0;whiteSpace=wrap;html=1;" vertex="1" parent="eT15S88B968ChohsC_bF-3">
          <mxGeometry x="40" y="1780" width="120" height="60" as="geometry" />
        </mxCell>
        <mxCell id="eT15S88B968ChohsC_bF-72" value="CORRECTO" style="rhombus;whiteSpace=wrap;html=1;" vertex="1" parent="eT15S88B968ChohsC_bF-3">
          <mxGeometry x="60" y="1880" width="80" height="80" as="geometry" />
        </mxCell>
        <mxCell id="eT15S88B968ChohsC_bF-73" value="" style="endArrow=classic;html=1;rounded=0;exitX=0.5;exitY=1;exitDx=0;exitDy=0;entryX=0.5;entryY=0;entryDx=0;entryDy=0;" edge="1" parent="eT15S88B968ChohsC_bF-3" source="eT15S88B968ChohsC_bF-70" target="eT15S88B968ChohsC_bF-72">
          <mxGeometry width="50" height="50" relative="1" as="geometry">
            <mxPoint x="450" y="1800" as="sourcePoint" />
            <mxPoint x="500" y="1750" as="targetPoint" />
          </mxGeometry>
        </mxCell>
        <mxCell id="eT15S88B968ChohsC_bF-79" value="NOTIFICA REVISIÓN" style="rounded=0;whiteSpace=wrap;html=1;" vertex="1" parent="eT15S88B968ChohsC_bF-3">
          <mxGeometry x="40" y="2010" width="120" height="60" as="geometry" />
        </mxCell>
        <mxCell id="eT15S88B968ChohsC_bF-82" value="" style="endArrow=classic;html=1;rounded=0;exitX=0.5;exitY=1;exitDx=0;exitDy=0;entryX=0.5;entryY=0;entryDx=0;entryDy=0;" edge="1" parent="eT15S88B968ChohsC_bF-3" source="eT15S88B968ChohsC_bF-72" target="eT15S88B968ChohsC_bF-79">
          <mxGeometry width="50" height="50" relative="1" as="geometry">
            <mxPoint x="320" y="1920" as="sourcePoint" />
            <mxPoint x="370" y="1870" as="targetPoint" />
          </mxGeometry>
        </mxCell>
        <mxCell id="eT15S88B968ChohsC_bF-89" value="RECIBE TICKET" style="shape=document;whiteSpace=wrap;html=1;boundedLbl=1;" vertex="1" parent="eT15S88B968ChohsC_bF-3">
          <mxGeometry x="40" y="2120" width="120" height="80" as="geometry" />
        </mxCell>
        <mxCell id="eT15S88B968ChohsC_bF-92" value="" style="endArrow=classic;html=1;rounded=0;exitX=0;exitY=0.5;exitDx=0;exitDy=0;entryX=0;entryY=0.5;entryDx=0;entryDy=0;" edge="1" parent="eT15S88B968ChohsC_bF-3" source="eT15S88B968ChohsC_bF-89" target="eT15S88B968ChohsC_bF-29">
          <mxGeometry width="50" height="50" relative="1" as="geometry">
            <mxPoint x="20" y="2100" as="sourcePoint" />
            <mxPoint x="70" y="2050" as="targetPoint" />
            <Array as="points">
              <mxPoint x="10" y="2160" />
              <mxPoint x="10" y="600" />
            </Array>
          </mxGeometry>
        </mxCell>
        <mxCell id="eT15S88B968ChohsC_bF-4" value="PREPARACION" style="swimlane;whiteSpace=wrap;html=1;" vertex="1" parent="1">
          <mxGeometry x="590" y="50" width="180" height="2460" as="geometry" />
        </mxCell>
        <mxCell id="eT15S88B968ChohsC_bF-44" value="RECIBE ORDEN" style="rounded=0;whiteSpace=wrap;html=1;" vertex="1" parent="eT15S88B968ChohsC_bF-4">
          <mxGeometry x="30" y="970" width="120" height="60" as="geometry" />
        </mxCell>
        <mxCell id="eT15S88B968ChohsC_bF-47" value="REÚNE INSUMOS Y PROCEDE A PREPARACION" style="shape=hexagon;perimeter=hexagonPerimeter2;whiteSpace=wrap;html=1;fixedSize=1;" vertex="1" parent="eT15S88B968ChohsC_bF-4">
          <mxGeometry x="20" y="1080" width="140" height="120" as="geometry" />
        </mxCell>
        <mxCell id="eT15S88B968ChohsC_bF-49" value="" style="endArrow=classic;html=1;rounded=0;exitX=0.5;exitY=1;exitDx=0;exitDy=0;entryX=0.5;entryY=0;entryDx=0;entryDy=0;" edge="1" parent="eT15S88B968ChohsC_bF-4" source="eT15S88B968ChohsC_bF-44" target="eT15S88B968ChohsC_bF-47">
          <mxGeometry width="50" height="50" relative="1" as="geometry">
            <mxPoint x="10" y="1070" as="sourcePoint" />
            <mxPoint x="60" y="1020" as="targetPoint" />
          </mxGeometry>
        </mxCell>
        <mxCell id="eT15S88B968ChohsC_bF-50" value="NOTIFICA ORDEN LISTA" style="rounded=0;whiteSpace=wrap;html=1;" vertex="1" parent="eT15S88B968ChohsC_bF-4">
          <mxGeometry x="30" y="1250" width="120" height="60" as="geometry" />
        </mxCell>
        <mxCell id="eT15S88B968ChohsC_bF-51" value="" style="endArrow=classic;html=1;rounded=0;exitX=0.5;exitY=1;exitDx=0;exitDy=0;entryX=0.5;entryY=0;entryDx=0;entryDy=0;" edge="1" parent="eT15S88B968ChohsC_bF-4" source="eT15S88B968ChohsC_bF-47" target="eT15S88B968ChohsC_bF-50">
          <mxGeometry width="50" height="50" relative="1" as="geometry">
            <mxPoint x="10" y="1270" as="sourcePoint" />
            <mxPoint x="60" y="1220" as="targetPoint" />
          </mxGeometry>
        </mxCell>
        <mxCell id="eT15S88B968ChohsC_bF-12" value="" style="endArrow=classic;html=1;rounded=0;exitX=1;exitY=0.5;exitDx=0;exitDy=0;entryX=0;entryY=0.5;entryDx=0;entryDy=0;" edge="1" parent="1" source="eT15S88B968ChohsC_bF-6" target="eT15S88B968ChohsC_bF-7">
          <mxGeometry width="50" height="50" relative="1" as="geometry">
            <mxPoint x="390" y="210" as="sourcePoint" />
            <mxPoint x="440" y="160" as="targetPoint" />
          </mxGeometry>
        </mxCell>
        <mxCell id="eT15S88B968ChohsC_bF-22" value="" style="endArrow=classic;html=1;rounded=0;entryX=0.5;entryY=1;entryDx=0;entryDy=0;exitX=0;exitY=0.5;exitDx=0;exitDy=0;" edge="1" parent="1" source="eT15S88B968ChohsC_bF-17" target="eT15S88B968ChohsC_bF-21">
          <mxGeometry width="50" height="50" relative="1" as="geometry">
            <mxPoint x="390" y="460" as="sourcePoint" />
            <mxPoint x="440" y="410" as="targetPoint" />
            <Array as="points">
              <mxPoint x="110" y="570" />
            </Array>
          </mxGeometry>
        </mxCell>
        <mxCell id="eT15S88B968ChohsC_bF-23" value="SI" style="edgeLabel;html=1;align=center;verticalAlign=middle;resizable=0;points=[];" connectable="0" vertex="1" parent="eT15S88B968ChohsC_bF-22">
          <mxGeometry x="-0.0506" y="3" relative="1" as="geometry">
            <mxPoint as="offset" />
          </mxGeometry>
        </mxCell>
        <mxCell id="eT15S88B968ChohsC_bF-24" value="" style="endArrow=classic;html=1;rounded=0;exitX=0.5;exitY=0;exitDx=0;exitDy=0;entryX=0;entryY=0.5;entryDx=0;entryDy=0;" edge="1" parent="1" source="eT15S88B968ChohsC_bF-21" target="eT15S88B968ChohsC_bF-10">
          <mxGeometry width="50" height="50" relative="1" as="geometry">
            <mxPoint x="390" y="460" as="sourcePoint" />
            <mxPoint x="440" y="410" as="targetPoint" />
            <Array as="points">
              <mxPoint x="110" y="310" />
            </Array>
          </mxGeometry>
        </mxCell>
        <mxCell id="eT15S88B968ChohsC_bF-28" value="" style="endArrow=classic;html=1;rounded=0;exitX=1;exitY=0.5;exitDx=0;exitDy=0;entryX=0;entryY=0.5;entryDx=0;entryDy=0;" edge="1" parent="1" source="eT15S88B968ChohsC_bF-14" target="eT15S88B968ChohsC_bF-27">
          <mxGeometry width="50" height="50" relative="1" as="geometry">
            <mxPoint x="390" y="460" as="sourcePoint" />
            <mxPoint x="440" y="410" as="targetPoint" />
          </mxGeometry>
        </mxCell>
        <mxCell id="eT15S88B968ChohsC_bF-30" value="" style="endArrow=classic;html=1;rounded=0;exitX=0.5;exitY=1;exitDx=0;exitDy=0;entryX=1;entryY=0.5;entryDx=0;entryDy=0;" edge="1" parent="1" source="eT15S88B968ChohsC_bF-17" target="eT15S88B968ChohsC_bF-29">
          <mxGeometry width="50" height="50" relative="1" as="geometry">
            <mxPoint x="390" y="700" as="sourcePoint" />
            <mxPoint x="440" y="650" as="targetPoint" />
            <Array as="points">
              <mxPoint x="290" y="650" />
            </Array>
          </mxGeometry>
        </mxCell>
        <mxCell id="eT15S88B968ChohsC_bF-31" value="NO" style="edgeLabel;html=1;align=center;verticalAlign=middle;resizable=0;points=[];" connectable="0" vertex="1" parent="eT15S88B968ChohsC_bF-30">
          <mxGeometry x="0.1429" y="3" relative="1" as="geometry">
            <mxPoint as="offset" />
          </mxGeometry>
        </mxCell>
        <mxCell id="eT15S88B968ChohsC_bF-35" value="" style="endArrow=classic;html=1;rounded=0;exitX=0;exitY=0.5;exitDx=0;exitDy=0;entryX=1;entryY=0.5;entryDx=0;entryDy=0;" edge="1" parent="1" source="eT15S88B968ChohsC_bF-32" target="eT15S88B968ChohsC_bF-34">
          <mxGeometry width="50" height="50" relative="1" as="geometry">
            <mxPoint x="390" y="580" as="sourcePoint" />
            <mxPoint x="440" y="530" as="targetPoint" />
          </mxGeometry>
        </mxCell>
        <mxCell id="eT15S88B968ChohsC_bF-38" value="" style="endArrow=classic;html=1;rounded=0;exitX=0.5;exitY=1;exitDx=0;exitDy=0;entryX=0;entryY=0.5;entryDx=0;entryDy=0;" edge="1" parent="1" source="eT15S88B968ChohsC_bF-34" target="eT15S88B968ChohsC_bF-36">
          <mxGeometry width="50" height="50" relative="1" as="geometry">
            <mxPoint x="390" y="790" as="sourcePoint" />
            <mxPoint x="440" y="740" as="targetPoint" />
            <Array as="points">
              <mxPoint x="120" y="885" />
            </Array>
          </mxGeometry>
        </mxCell>
        <mxCell id="eT15S88B968ChohsC_bF-45" value="Caja" style="swimlane;whiteSpace=wrap;html=1;" vertex="1" parent="1">
          <mxGeometry x="780" y="50" width="180" height="2460" as="geometry" />
        </mxCell>
        <mxCell id="eT15S88B968ChohsC_bF-61" value="CALCULA CONSUMO" style="shape=process;whiteSpace=wrap;html=1;backgroundOutline=1;" vertex="1" parent="eT15S88B968ChohsC_bF-45">
          <mxGeometry x="10" y="1570" width="120" height="60" as="geometry" />
        </mxCell>
        <mxCell id="eT15S88B968ChohsC_bF-62" value="IMPRIME ESTADO DE CUENTA POR PAGAR" style="shape=document;whiteSpace=wrap;html=1;boundedLbl=1;" vertex="1" parent="eT15S88B968ChohsC_bF-45">
          <mxGeometry x="10" y="1664" width="120" height="80" as="geometry" />
        </mxCell>
        <mxCell id="eT15S88B968ChohsC_bF-67" value="ENTREGA A CLIENTE" style="rounded=0;whiteSpace=wrap;html=1;" vertex="1" parent="eT15S88B968ChohsC_bF-45">
          <mxGeometry x="10" y="1780" width="120" height="60" as="geometry" />
        </mxCell>
        <mxCell id="eT15S88B968ChohsC_bF-68" value="" style="endArrow=classic;html=1;rounded=0;exitX=0.5;exitY=1;exitDx=0;exitDy=0;entryX=0.5;entryY=0;entryDx=0;entryDy=0;" edge="1" parent="eT15S88B968ChohsC_bF-45" source="eT15S88B968ChohsC_bF-61" target="eT15S88B968ChohsC_bF-62">
          <mxGeometry width="50" height="50" relative="1" as="geometry">
            <mxPoint x="-310" y="1730" as="sourcePoint" />
            <mxPoint x="-260" y="1680" as="targetPoint" />
          </mxGeometry>
        </mxCell>
        <mxCell id="eT15S88B968ChohsC_bF-69" value="" style="endArrow=classic;html=1;rounded=0;exitX=0.492;exitY=0.85;exitDx=0;exitDy=0;exitPerimeter=0;entryX=0.5;entryY=0;entryDx=0;entryDy=0;" edge="1" parent="eT15S88B968ChohsC_bF-45" source="eT15S88B968ChohsC_bF-62" target="eT15S88B968ChohsC_bF-67">
          <mxGeometry width="50" height="50" relative="1" as="geometry">
            <mxPoint x="-310" y="1730" as="sourcePoint" />
            <mxPoint x="-260" y="1680" as="targetPoint" />
          </mxGeometry>
        </mxCell>
        <mxCell id="eT15S88B968ChohsC_bF-74" value="REALIZA CORBO" style="rounded=0;whiteSpace=wrap;html=1;" vertex="1" parent="eT15S88B968ChohsC_bF-45">
          <mxGeometry x="20" y="1890" width="120" height="60" as="geometry" />
        </mxCell>
        <mxCell id="eT15S88B968ChohsC_bF-77" value="IMPRIME TICKET DE PAGO" style="shape=document;whiteSpace=wrap;html=1;boundedLbl=1;" vertex="1" parent="eT15S88B968ChohsC_bF-45">
          <mxGeometry x="20" y="1990" width="120" height="80" as="geometry" />
        </mxCell>
        <mxCell id="eT15S88B968ChohsC_bF-78" value="" style="endArrow=classic;html=1;rounded=0;exitX=0.5;exitY=1;exitDx=0;exitDy=0;entryX=0.5;entryY=0;entryDx=0;entryDy=0;" edge="1" parent="eT15S88B968ChohsC_bF-45" source="eT15S88B968ChohsC_bF-74" target="eT15S88B968ChohsC_bF-77">
          <mxGeometry width="50" height="50" relative="1" as="geometry">
            <mxPoint x="-270" y="1920" as="sourcePoint" />
            <mxPoint x="-220" y="1870" as="targetPoint" />
          </mxGeometry>
        </mxCell>
        <mxCell id="eT15S88B968ChohsC_bF-83" value="REVISA CONSUMO" style="rounded=0;whiteSpace=wrap;html=1;" vertex="1" parent="eT15S88B968ChohsC_bF-45">
          <mxGeometry x="10" y="1480" width="120" height="60" as="geometry" />
        </mxCell>
        <mxCell id="eT15S88B968ChohsC_bF-87" value="" style="endArrow=classic;html=1;rounded=0;exitX=0.5;exitY=1;exitDx=0;exitDy=0;entryX=0.5;entryY=0;entryDx=0;entryDy=0;" edge="1" parent="eT15S88B968ChohsC_bF-45" source="eT15S88B968ChohsC_bF-83" target="eT15S88B968ChohsC_bF-61">
          <mxGeometry width="50" height="50" relative="1" as="geometry">
            <mxPoint x="-230" y="1660" as="sourcePoint" />
            <mxPoint x="-180" y="1610" as="targetPoint" />
          </mxGeometry>
        </mxCell>
        <mxCell id="eT15S88B968ChohsC_bF-88" value="ENTREGA TICKET" style="rounded=0;whiteSpace=wrap;html=1;" vertex="1" parent="eT15S88B968ChohsC_bF-45">
          <mxGeometry x="20" y="2130" width="120" height="60" as="geometry" />
        </mxCell>
        <mxCell id="eT15S88B968ChohsC_bF-90" value="" style="endArrow=classic;html=1;rounded=0;exitX=0.492;exitY=0.838;exitDx=0;exitDy=0;exitPerimeter=0;entryX=0.5;entryY=0;entryDx=0;entryDy=0;" edge="1" parent="eT15S88B968ChohsC_bF-45" source="eT15S88B968ChohsC_bF-77" target="eT15S88B968ChohsC_bF-88">
          <mxGeometry width="50" height="50" relative="1" as="geometry">
            <mxPoint x="-210" y="2260" as="sourcePoint" />
            <mxPoint x="-160" y="2210" as="targetPoint" />
          </mxGeometry>
        </mxCell>
        <mxCell id="eT15S88B968ChohsC_bF-93" value="NOTIFICA CORBO" style="rounded=0;whiteSpace=wrap;html=1;" vertex="1" parent="eT15S88B968ChohsC_bF-45">
          <mxGeometry x="20" y="2228" width="120" height="60" as="geometry" />
        </mxCell>
        <mxCell id="eT15S88B968ChohsC_bF-94" value="" style="endArrow=classic;html=1;rounded=0;exitX=0.5;exitY=1;exitDx=0;exitDy=0;entryX=0.5;entryY=0;entryDx=0;entryDy=0;" edge="1" parent="eT15S88B968ChohsC_bF-45" source="eT15S88B968ChohsC_bF-88" target="eT15S88B968ChohsC_bF-93">
          <mxGeometry width="50" height="50" relative="1" as="geometry">
            <mxPoint y="2250" as="sourcePoint" />
            <mxPoint x="50" y="2200" as="targetPoint" />
          </mxGeometry>
        </mxCell>
        <mxCell id="eT15S88B968ChohsC_bF-48" value="" style="endArrow=classic;html=1;rounded=0;exitX=1;exitY=0.5;exitDx=0;exitDy=0;entryX=0;entryY=0.5;entryDx=0;entryDy=0;" edge="1" parent="1" source="eT15S88B968ChohsC_bF-41" target="eT15S88B968ChohsC_bF-44">
          <mxGeometry width="50" height="50" relative="1" as="geometry">
            <mxPoint x="600" y="1120" as="sourcePoint" />
            <mxPoint x="650" y="1070" as="targetPoint" />
          </mxGeometry>
        </mxCell>
        <mxCell id="eT15S88B968ChohsC_bF-53" value="" style="endArrow=classic;html=1;rounded=0;entryX=1;entryY=0.5;entryDx=0;entryDy=0;exitX=0;exitY=0.5;exitDx=0;exitDy=0;" edge="1" parent="1" source="eT15S88B968ChohsC_bF-50" target="eT15S88B968ChohsC_bF-52">
          <mxGeometry width="50" height="50" relative="1" as="geometry">
            <mxPoint x="600" y="1320" as="sourcePoint" />
            <mxPoint x="650" y="1270" as="targetPoint" />
          </mxGeometry>
        </mxCell>
        <mxCell id="eT15S88B968ChohsC_bF-55" value="" style="endArrow=classic;html=1;rounded=0;exitX=0;exitY=0.5;exitDx=0;exitDy=0;entryX=1;entryY=0.5;entryDx=0;entryDy=0;" edge="1" parent="1" source="eT15S88B968ChohsC_bF-52" target="eT15S88B968ChohsC_bF-54">
          <mxGeometry width="50" height="50" relative="1" as="geometry">
            <mxPoint x="260" y="1320" as="sourcePoint" />
            <mxPoint x="310" y="1270" as="targetPoint" />
          </mxGeometry>
        </mxCell>
        <mxCell id="eT15S88B968ChohsC_bF-57" value="" style="endArrow=classic;html=1;rounded=0;exitX=0.5;exitY=1;exitDx=0;exitDy=0;entryX=0.5;entryY=0;entryDx=0;entryDy=0;" edge="1" parent="1" source="eT15S88B968ChohsC_bF-54" target="eT15S88B968ChohsC_bF-56">
          <mxGeometry width="50" height="50" relative="1" as="geometry">
            <mxPoint x="300" y="1500" as="sourcePoint" />
            <mxPoint x="350" y="1450" as="targetPoint" />
            <Array as="points">
              <mxPoint x="120" y="1430" />
            </Array>
          </mxGeometry>
        </mxCell>
        <mxCell id="eT15S88B968ChohsC_bF-66" value="" style="endArrow=classic;html=1;rounded=0;exitX=1;exitY=0.5;exitDx=0;exitDy=0;entryX=0;entryY=0.5;entryDx=0;entryDy=0;" edge="1" parent="1" source="eT15S88B968ChohsC_bF-60" target="eT15S88B968ChohsC_bF-61">
          <mxGeometry width="50" height="50" relative="1" as="geometry">
            <mxPoint x="470" y="1580" as="sourcePoint" />
            <mxPoint x="520" y="1530" as="targetPoint" />
          </mxGeometry>
        </mxCell>
        <mxCell id="eT15S88B968ChohsC_bF-71" value="" style="endArrow=classic;html=1;rounded=0;exitX=0;exitY=0.5;exitDx=0;exitDy=0;entryX=1;entryY=0.5;entryDx=0;entryDy=0;" edge="1" parent="1" source="eT15S88B968ChohsC_bF-67" target="eT15S88B968ChohsC_bF-70">
          <mxGeometry width="50" height="50" relative="1" as="geometry">
            <mxPoint x="470" y="1850" as="sourcePoint" />
            <mxPoint x="520" y="1800" as="targetPoint" />
          </mxGeometry>
        </mxCell>
        <mxCell id="eT15S88B968ChohsC_bF-75" value="" style="endArrow=classic;html=1;rounded=0;exitX=1;exitY=0.5;exitDx=0;exitDy=0;entryX=0;entryY=0.5;entryDx=0;entryDy=0;" edge="1" parent="1" source="eT15S88B968ChohsC_bF-72" target="eT15S88B968ChohsC_bF-74">
          <mxGeometry width="50" height="50" relative="1" as="geometry">
            <mxPoint x="510" y="1970" as="sourcePoint" />
            <mxPoint x="560" y="1920" as="targetPoint" />
          </mxGeometry>
        </mxCell>
        <mxCell id="eT15S88B968ChohsC_bF-76" value="SI" style="edgeLabel;html=1;align=center;verticalAlign=middle;resizable=0;points=[];" connectable="0" vertex="1" parent="eT15S88B968ChohsC_bF-75">
          <mxGeometry x="0.0062" relative="1" as="geometry">
            <mxPoint as="offset" />
          </mxGeometry>
        </mxCell>
        <mxCell id="eT15S88B968ChohsC_bF-84" value="" style="endArrow=classic;html=1;rounded=0;entryX=0.008;entryY=0.4;entryDx=0;entryDy=0;entryPerimeter=0;exitX=0;exitY=0.5;exitDx=0;exitDy=0;" edge="1" parent="1" source="eT15S88B968ChohsC_bF-79" target="eT15S88B968ChohsC_bF-83">
          <mxGeometry width="50" height="50" relative="1" as="geometry">
            <mxPoint x="560" y="1670" as="sourcePoint" />
            <mxPoint x="610" y="1620" as="targetPoint" />
            <Array as="points">
              <mxPoint x="20" y="2090" />
              <mxPoint x="20" y="1560" />
            </Array>
          </mxGeometry>
        </mxCell>
        <mxCell id="eT15S88B968ChohsC_bF-91" value="" style="endArrow=classic;html=1;rounded=0;exitX=0;exitY=0.5;exitDx=0;exitDy=0;entryX=1;entryY=0.5;entryDx=0;entryDy=0;" edge="1" parent="1" source="eT15S88B968ChohsC_bF-88" target="eT15S88B968ChohsC_bF-89">
          <mxGeometry width="50" height="50" relative="1" as="geometry">
            <mxPoint x="440" y="2310" as="sourcePoint" />
            <mxPoint x="490" y="2260" as="targetPoint" />
          </mxGeometry>
        </mxCell>
        <mxCell id="eT15S88B968ChohsC_bF-96" value="" style="endArrow=classic;html=1;rounded=0;entryX=1;entryY=0.5;entryDx=0;entryDy=0;exitX=0;exitY=0.5;exitDx=0;exitDy=0;" edge="1" parent="1" source="eT15S88B968ChohsC_bF-93" target="eT15S88B968ChohsC_bF-95">
          <mxGeometry width="50" height="50" relative="1" as="geometry">
            <mxPoint x="780" y="2300" as="sourcePoint" />
            <mxPoint x="830" y="2250" as="targetPoint" />
          </mxGeometry>
        </mxCell>
        <mxCell id="eT15S88B968ChohsC_bF-97" value="" style="endArrow=classic;html=1;rounded=0;exitX=0;exitY=0.5;exitDx=0;exitDy=0;entryX=0;entryY=0.5;entryDx=0;entryDy=0;" edge="1" parent="1" source="eT15S88B968ChohsC_bF-95" target="eT15S88B968ChohsC_bF-29">
          <mxGeometry width="50" height="50" relative="1" as="geometry">
            <mxPoint x="130" y="2300" as="sourcePoint" />
            <mxPoint x="180" y="2250" as="targetPoint" />
            <Array as="points">
              <mxPoint x="10" y="2308" />
            </Array>
          </mxGeometry>
        </mxCell>
      </root>
    </mxGraphModel>
  </diagram>
</mxfile>
